<svg width="122" height="26" viewBox="0 0 122 26" fill="none" xmlns="http://www.w3.org/2000/svg">
<path d="M4.83 9.37C4.37 9.37 3.96 9.32333 3.6 9.23C3.24 9.14333 2.93333 9.02 2.68 8.86C2.43333 8.7 2.24333 8.51 2.11 8.29C1.97667 8.07667 1.91 7.84667 1.91 7.6C1.91 7.35333 1.97667 7.12333 2.11 6.91C2.24333 6.69667 2.43333 6.51333 2.68 6.36C2.93333 6.20667 3.24 6.08667 3.6 6C3.96667 5.90667 4.37667 5.86 4.83 5.86C5.28333 5.86 5.69 5.90667 6.05 6C6.41667 6.08667 6.72333 6.20667 6.97 6.36C7.22333 6.51333 7.41667 6.69667 7.55 6.91C7.68333 7.12333 7.75 7.35333 7.75 7.6C7.75 7.84667 7.68333 8.07667 7.55 8.29C7.41667 8.51 7.22333 8.7 6.97 8.86C6.72333 9.02 6.42 9.14333 6.06 9.23C5.7 9.32333 5.29 9.37 4.83 9.37ZM4.82 8.89C5.20667 8.89 5.54667 8.85333 5.84 8.78C6.13333 8.71333 6.37667 8.62 6.57 8.5C6.77 8.38 6.92 8.24333 7.02 8.09C7.12 7.93667 7.17 7.78 7.17 7.62C7.17 7.45333 7.12 7.29333 7.02 7.14C6.92667 6.98667 6.78 6.85333 6.58 6.74C6.38667 6.62 6.14333 6.52667 5.85 6.46C5.55667 6.38667 5.21333 6.35 4.82 6.35C4.42667 6.35 4.08333 6.38667 3.79 6.46C3.50333 6.52667 3.26333 6.62 3.07 6.74C2.87667 6.85333 2.73 6.98667 2.63 7.14C2.53667 7.29333 2.49 7.45333 2.49 7.62C2.49 7.78 2.53667 7.93667 2.63 8.09C2.73 8.24333 2.87667 8.38 3.07 8.5C3.27 8.62 3.51333 8.71333 3.8 8.78C4.09333 8.85333 4.43333 8.89 4.82 8.89ZM0.9 0.65H2.59C2.98333 0.65 3.36667 0.65 3.74 0.65C4.11333 0.643333 4.5 0.633333 4.9 0.62C4.86 1.06 4.73667 1.49333 4.53 1.92C4.32333 2.34667 4.06 2.75333 3.74 3.14C4 3.44 4.32333 3.73333 4.71 4.02C5.10333 4.3 5.52 4.54667 5.96 4.76L5.55 5.23C5.35667 5.13 5.16 5.01333 4.96 4.88C4.76667 4.74667 4.57333 4.61 4.38 4.47C4.19333 4.32333 4.01333 4.17333 3.84 4.02C3.66667 3.86 3.51333 3.70333 3.38 3.55C2.98 3.97 2.54 4.34667 2.06 4.68C1.58667 5.00667 1.11 5.27 0.63 5.47L0.25 5C0.796667 4.78 1.29667 4.51667 1.75 4.21C2.21 3.89667 2.61 3.56667 2.95 3.22C3.29 2.87333 3.56667 2.52 3.78 2.16C3.99333 1.8 4.13 1.46 4.19 1.14C3.79667 1.15333 3.43333 1.16333 3.1 1.17C2.76667 1.17 2.4 1.17 2 1.17H0.9V0.65ZM7.18 3.07H5.38V2.55H7.18V0.219999H7.74V5.73H7.18V3.07ZM10.346 0.65H12.076C12.4827 0.65 12.886 0.65 13.286 0.65C13.686 0.643333 14.0927 0.633333 14.506 0.62C14.4527 1.06667 14.326 1.49 14.126 1.89C13.9327 2.28333 13.686 2.65667 13.386 3.01C13.6527 3.32333 13.976 3.62333 14.356 3.91C14.7427 4.19 15.1727 4.44333 15.646 4.67L15.236 5.14C14.8227 4.92 14.416 4.66 14.016 4.36C13.6227 4.05333 13.2927 3.73667 13.026 3.41C12.606 3.83 12.136 4.20667 11.616 4.54C11.096 4.86667 10.5727 5.13667 10.046 5.35L9.66602 4.87C10.2327 4.65 10.7493 4.4 11.216 4.12C11.6893 3.83333 12.1027 3.53 12.456 3.21C12.8093 2.89 13.0993 2.55667 13.326 2.21C13.5527 1.85667 13.706 1.5 13.786 1.14C13.366 1.15333 12.976 1.16333 12.616 1.17C12.256 1.17 11.8727 1.17 11.466 1.17H10.346V0.65ZM17.156 9.34H16.596V6.74H11.406V6.24H17.156V9.34ZM16.586 5.64V0.219999H17.156V5.64H16.586ZM24.402 1.84H19.042V1.35H24.402V1.84ZM23.142 0.69H20.302V0.169999H23.142V0.69ZM19.532 3.98C19.532 3.77333 19.5787 3.57667 19.672 3.39C19.7654 3.19667 19.902 3.03 20.082 2.89C20.2687 2.74333 20.4987 2.62667 20.772 2.54C21.0454 2.45333 21.362 2.41 21.722 2.41C22.082 2.41 22.3987 2.45333 22.672 2.54C22.9454 2.62667 23.172 2.74333 23.352 2.89C23.5387 3.03 23.6787 3.19667 23.772 3.39C23.8654 3.57667 23.912 3.77333 23.912 3.98C23.912 4.19333 23.8654 4.39667 23.772 4.59C23.6787 4.78333 23.5387 4.95333 23.352 5.1C23.172 5.24 22.9454 5.35333 22.672 5.44C22.3987 5.52 22.082 5.56 21.722 5.56C21.362 5.56 21.0454 5.52 20.772 5.44C20.4987 5.35333 20.2687 5.24 20.082 5.1C19.902 4.95333 19.7654 4.78333 19.672 4.59C19.5787 4.39667 19.532 4.19333 19.532 3.98ZM20.102 3.99C20.102 4.13 20.1354 4.26667 20.202 4.4C20.2687 4.52667 20.3687 4.64 20.502 4.74C20.6354 4.83333 20.802 4.91 21.002 4.97C21.2087 5.03 21.4487 5.06 21.722 5.06C21.9954 5.06 22.232 5.03 22.432 4.97C22.6387 4.91 22.8087 4.83333 22.942 4.74C23.0754 4.64 23.1754 4.52667 23.242 4.4C23.3087 4.26667 23.342 4.13 23.342 3.99C23.342 3.85667 23.3087 3.72667 23.242 3.6C23.1754 3.46667 23.0754 3.35 22.942 3.25C22.8087 3.15 22.6387 3.07 22.432 3.01C22.232 2.94333 21.9954 2.91 21.722 2.91C21.4487 2.91 21.2087 2.94333 21.002 3.01C20.802 3.07 20.6354 3.15 20.502 3.25C20.3687 3.35 20.2687 3.46667 20.202 3.6C20.1354 3.72667 20.102 3.85667 20.102 3.99ZM27.632 3.09V3.6H26.122V5.74H25.562V0.219999H26.122V3.09H27.632ZM26.122 6.34V9.17H20.652V6.34H26.122ZM25.562 8.67V6.83H21.222V8.67H25.562ZM35.708 1.85C35.708 2.31667 35.458 2.69333 34.958 2.98C34.4647 3.26 33.718 3.4 32.718 3.4C31.7247 3.4 30.978 3.26 30.478 2.98C29.978 2.69333 29.728 2.31667 29.728 1.85C29.728 1.61667 29.7914 1.40333 29.918 1.21C30.0447 1.01 30.2314 0.84 30.478 0.7C30.7314 0.553333 31.0447 0.44 31.418 0.359999C31.7914 0.28 32.2247 0.24 32.718 0.24C33.218 0.24 33.6547 0.28 34.028 0.359999C34.4014 0.44 34.7114 0.553333 34.958 0.7C35.2114 0.84 35.398 1.01 35.518 1.21C35.6447 1.40333 35.708 1.61667 35.708 1.85ZM28.368 4.18H37.018V4.67H28.368V4.18ZM35.818 9.27H29.818V7.21H35.008V6.17H29.818V5.68H35.568V7.68H30.378V8.79H35.818V9.27ZM35.138 1.85C35.138 1.71 35.0914 1.57333 34.998 1.44C34.9047 1.30667 34.758 1.19 34.558 1.09C34.358 0.983333 34.1047 0.9 33.798 0.84C33.4914 0.773333 33.128 0.74 32.708 0.74C32.2814 0.74 31.9147 0.773333 31.608 0.84C31.308 0.9 31.058 0.983333 30.858 1.09C30.6647 1.19 30.5214 1.30667 30.428 1.44C30.3414 1.57333 30.298 1.71 30.298 1.85C30.298 2.15 30.4847 2.4 30.858 2.6C31.238 2.8 31.8547 2.9 32.708 2.9C33.5547 2.9 34.1714 2.8 34.558 2.6C34.9447 2.4 35.138 2.15 35.138 1.85ZM41.0804 4.59V0.66H45.2104V1.17H41.6604V4.08H43.1004C43.8204 4.08 44.4804 4.04333 45.0804 3.97C45.6804 3.89667 46.1871 3.81333 46.6004 3.72V4.2C46.3804 4.26 46.1271 4.31333 45.8404 4.36C45.5537 4.40667 45.2504 4.45 44.9304 4.49C44.6104 4.52333 44.2804 4.55 43.9404 4.57C43.6071 4.58333 43.2804 4.59 42.9604 4.59H41.0804ZM49.2004 2.14V2.66H47.6904V5.31H47.1304V0.219999H47.6904V2.14H49.2004ZM47.6904 5.91V9.17H42.2404V5.91H47.6904ZM47.1304 8.66V6.42H42.8104V8.66H47.1304ZM57.2464 2.16C57.2464 2.43333 57.1797 2.68667 57.0464 2.92C56.9131 3.15333 56.7197 3.35667 56.4664 3.53C56.2131 3.69667 55.9031 3.83 55.5364 3.93C55.1697 4.03 54.7564 4.08 54.2964 4.08C53.8297 4.08 53.4131 4.03 53.0464 3.93C52.6864 3.83 52.3797 3.69667 52.1264 3.53C51.8797 3.35667 51.6897 3.15333 51.5564 2.92C51.4231 2.68667 51.3564 2.43333 51.3564 2.16C51.3564 1.88667 51.4231 1.63333 51.5564 1.4C51.6897 1.16667 51.8797 0.963333 52.1264 0.79C52.3797 0.616666 52.6864 0.483333 53.0464 0.39C53.4131 0.29 53.8297 0.24 54.2964 0.24C54.7564 0.24 55.1697 0.29 55.5364 0.39C55.9031 0.483333 56.2131 0.616666 56.4664 0.79C56.7197 0.963333 56.9131 1.16667 57.0464 1.4C57.1797 1.63333 57.2464 1.88667 57.2464 2.16ZM49.9364 4.97H58.5864V5.47H49.9364V4.97ZM57.3164 8.66V9.17H51.4264V6.46H52.0064V8.66H57.3164ZM56.6764 2.16C56.6764 1.97333 56.6264 1.79667 56.5264 1.63C56.4331 1.45667 56.2864 1.30667 56.0864 1.18C55.8931 1.04667 55.6464 0.94 55.3464 0.86C55.0464 0.78 54.6964 0.74 54.2964 0.74C53.8897 0.74 53.5364 0.78 53.2364 0.86C52.9431 0.94 52.6964 1.04667 52.4964 1.18C52.3031 1.30667 52.1597 1.45667 52.0664 1.63C51.9731 1.79667 51.9264 1.97333 51.9264 2.16C51.9264 2.34 51.9731 2.51667 52.0664 2.69C52.1597 2.85667 52.3031 3.00667 52.4964 3.14C52.6964 3.27333 52.9431 3.38 53.2364 3.46C53.5364 3.54 53.8897 3.58 54.2964 3.58C54.6964 3.58 55.0464 3.54 55.3464 3.46C55.6464 3.38 55.8931 3.27333 56.0864 3.14C56.2864 3.00667 56.4331 2.85667 56.5264 2.69C56.6264 2.51667 56.6764 2.34 56.6764 2.16ZM2.296 20.136V14.186H10.276V15.236H3.514V19.086H10.402V20.136H6.944V22.936H12.194V23.958H0.294V22.936H5.712V20.136H2.296ZM20.2524 18.386C20.2524 19.1327 20.1684 19.7953 20.0004 20.374C19.8324 20.9433 19.6038 21.4193 19.3144 21.802C19.0251 22.1847 18.6798 22.474 18.2784 22.67C17.8864 22.866 17.4618 22.964 17.0044 22.964C16.5471 22.964 16.1178 22.866 15.7164 22.67C15.3244 22.474 14.9791 22.1847 14.6804 21.802C14.3911 21.4193 14.1624 20.9433 13.9944 20.374C13.8264 19.7953 13.7424 19.1327 13.7424 18.386C13.7424 17.6393 13.8264 16.9813 13.9944 16.412C14.1624 15.8427 14.3911 15.3667 14.6804 14.984C14.9791 14.6013 15.3244 14.312 15.7164 14.116C16.1178 13.92 16.5471 13.822 17.0044 13.822C17.4618 13.822 17.8864 13.92 18.2784 14.116C18.6798 14.312 19.0251 14.6013 19.3144 14.984C19.6038 15.3667 19.8324 15.8427 20.0004 16.412C20.1684 16.9813 20.2524 17.6393 20.2524 18.386ZM25.6424 18.904H23.4444V25.862H22.2404V13.08H23.4444V17.84H25.6424V18.904ZM19.0344 18.386C19.0344 17.8633 18.9878 17.3873 18.8944 16.958C18.8104 16.5287 18.6798 16.16 18.5024 15.852C18.3344 15.544 18.1244 15.306 17.8724 15.138C17.6204 14.97 17.3311 14.886 17.0044 14.886C16.6778 14.886 16.3884 14.97 16.1364 15.138C15.8844 15.306 15.6698 15.544 15.4924 15.852C15.3244 16.16 15.1938 16.5287 15.1004 16.958C15.0164 17.3873 14.9744 17.8633 14.9744 18.386C14.9744 18.9087 15.0164 19.3847 15.1004 19.814C15.1938 20.2433 15.3244 20.612 15.4924 20.92C15.6698 21.228 15.8844 21.4707 16.1364 21.648C16.3884 21.816 16.6778 21.9 17.0044 21.9C17.3311 21.9 17.6204 21.816 17.8724 21.648C18.1244 21.4707 18.3344 21.228 18.5024 20.92C18.6798 20.612 18.8104 20.2433 18.8944 19.814C18.9878 19.3847 19.0344 18.9087 19.0344 18.386ZM32.1837 13.472H40.4577C40.439 14.2653 40.3877 15.0073 40.3037 15.698C40.229 16.3793 40.1404 17.0793 40.0377 17.798H39.2397C39.3424 17.21 39.431 16.6173 39.5057 16.02C39.5897 15.4227 39.6364 14.816 39.6457 14.2H32.1837V13.472ZM35.2357 16.146H36.0757V18.918H42.4737V19.618H30.3637V18.918H35.2357V16.146ZM36.3837 25.918C35.7397 25.918 35.161 25.8527 34.6477 25.722C34.1437 25.6007 33.7144 25.428 33.3597 25.204C33.005 24.98 32.7297 24.7093 32.5337 24.392C32.347 24.084 32.2537 23.748 32.2537 23.384C32.2537 23.02 32.347 22.684 32.5337 22.376C32.7297 22.068 33.005 21.8067 33.3597 21.592C33.7144 21.368 34.1484 21.1953 34.6617 21.074C35.175 20.9527 35.749 20.892 36.3837 20.892C37.0184 20.892 37.5877 20.9527 38.0917 21.074C38.605 21.1953 39.039 21.368 39.3937 21.592C39.7577 21.8067 40.033 22.068 40.2197 22.376C40.4157 22.684 40.5137 23.02 40.5137 23.384C40.5137 23.748 40.4157 24.084 40.2197 24.392C40.033 24.7093 39.7624 24.98 39.4077 25.204C39.053 25.428 38.619 25.6007 38.1057 25.722C37.6017 25.8527 37.0277 25.918 36.3837 25.918ZM36.3837 25.232C36.9157 25.232 37.387 25.1807 37.7977 25.078C38.2084 24.9847 38.5537 24.854 38.8337 24.686C39.1137 24.5273 39.3237 24.336 39.4637 24.112C39.6037 23.8973 39.6737 23.664 39.6737 23.412C39.6737 23.16 39.6037 22.9267 39.4637 22.712C39.3237 22.488 39.1137 22.292 38.8337 22.124C38.563 21.956 38.2224 21.8253 37.8117 21.732C37.401 21.6387 36.925 21.592 36.3837 21.592C35.8424 21.592 35.3664 21.6387 34.9557 21.732C34.545 21.8253 34.1997 21.956 33.9197 22.124C33.649 22.292 33.4437 22.488 33.3037 22.712C33.1637 22.9267 33.0937 23.16 33.0937 23.412C33.0937 23.664 33.1637 23.8973 33.3037 24.112C33.4437 24.336 33.6537 24.5273 33.9337 24.686C34.2137 24.854 34.559 24.9847 34.9697 25.078C35.3804 25.1807 35.8517 25.232 36.3837 25.232ZM53.4161 22.418V13.108H54.2141V22.418H53.4161ZM49.7481 16.72C49.7481 16.356 49.6875 16.0247 49.5661 15.726C49.4541 15.418 49.2908 15.1567 49.0761 14.942C48.8615 14.718 48.6048 14.55 48.3061 14.438C48.0075 14.3167 47.6808 14.256 47.3261 14.256C46.9715 14.256 46.6448 14.3167 46.3461 14.438C46.0568 14.55 45.8048 14.718 45.5901 14.942C45.3755 15.1567 45.2075 15.418 45.0861 15.726C44.9648 16.0247 44.9041 16.356 44.9041 16.72C44.9041 17.084 44.9648 17.4153 45.0861 17.714C45.2075 18.0127 45.3755 18.2693 45.5901 18.484C45.8048 18.6893 46.0568 18.8527 46.3461 18.974C46.6448 19.086 46.9715 19.142 47.3261 19.142C47.6808 19.142 48.0075 19.086 48.3061 18.974C48.6048 18.8527 48.8615 18.6893 49.0761 18.484C49.2908 18.2693 49.4541 18.0127 49.5661 17.714C49.6875 17.4153 49.7481 17.084 49.7481 16.72ZM50.5741 16.72C50.5741 17.196 50.4901 17.6253 50.3221 18.008C50.1635 18.3907 49.9395 18.7173 49.6501 18.988C49.3608 19.2587 49.0155 19.4687 48.6141 19.618C48.2221 19.7673 47.7881 19.842 47.3121 19.842C46.8455 19.842 46.4115 19.7673 46.0101 19.618C45.6181 19.4687 45.2775 19.2587 44.9881 18.988C44.7081 18.7173 44.4841 18.3907 44.3161 18.008C44.1575 17.6253 44.0781 17.196 44.0781 16.72C44.0781 16.244 44.1575 15.81 44.3161 15.418C44.4841 15.026 44.7081 14.69 44.9881 14.41C45.2775 14.13 45.6181 13.9153 46.0101 13.766C46.4115 13.6167 46.8455 13.542 47.3121 13.542C47.7881 13.542 48.2221 13.6167 48.6141 13.766C49.0155 13.9153 49.3608 14.13 49.6501 14.41C49.9395 14.69 50.1635 15.026 50.3221 15.418C50.4901 15.81 50.5741 16.244 50.5741 16.72ZM54.4241 24.854V25.582H46.4581V21.634H47.2561V24.854H54.4241ZM58.5625 23.608C58.5625 22.9733 58.8845 22.446 59.5285 22.026C60.1819 21.5967 61.1199 21.3587 62.3425 21.312V19.702H56.7285V19.002H68.8385V19.702H63.1685V21.312C64.4192 21.3587 65.3712 21.592 66.0245 22.012C66.6872 22.432 67.0185 22.964 67.0185 23.608C67.0185 24.2893 66.6545 24.8447 65.9265 25.274C65.2079 25.7033 64.1625 25.918 62.7905 25.918C61.4185 25.918 60.3685 25.7033 59.6405 25.274C58.9219 24.8447 58.5625 24.2893 58.5625 23.608ZM59.4165 23.608C59.4165 23.832 59.4819 24.0373 59.6125 24.224C59.7432 24.42 59.9439 24.5927 60.2145 24.742C60.4945 24.8913 60.8445 25.008 61.2645 25.092C61.6939 25.176 62.2025 25.218 62.7905 25.218C63.3785 25.218 63.8825 25.176 64.3025 25.092C64.7319 25.008 65.0819 24.8913 65.3525 24.742C65.6325 24.5927 65.8379 24.42 65.9685 24.224C66.0992 24.0373 66.1645 23.832 66.1645 23.608C66.1645 23.384 66.0992 23.1787 65.9685 22.992C65.8379 22.796 65.6325 22.6233 65.3525 22.474C65.0819 22.3247 64.7319 22.208 64.3025 22.124C63.8825 22.04 63.3785 21.998 62.7905 21.998C62.2025 21.998 61.6939 22.04 61.2645 22.124C60.8445 22.208 60.4945 22.3247 60.2145 22.474C59.9439 22.6233 59.7432 22.796 59.6125 22.992C59.4819 23.1787 59.4165 23.384 59.4165 23.608ZM58.7585 13.472H62.5245C63.1125 13.472 63.7005 13.472 64.2885 13.472C64.8765 13.472 65.4925 13.4627 66.1365 13.444C66.2392 13.444 66.3045 13.4767 66.3325 13.542C66.3605 13.6073 66.3512 13.6773 66.3045 13.752C66.0619 14.1813 65.7352 14.5873 65.3245 14.97C64.9232 15.3527 64.4565 15.7073 63.9245 16.034C64.5125 16.3607 65.1332 16.6313 65.7865 16.846C66.4399 17.0513 67.1119 17.224 67.8025 17.364L67.3825 18.12C67.0465 18.0453 66.6965 17.952 66.3325 17.84C65.9779 17.7187 65.6185 17.5833 65.2545 17.434C64.8999 17.2847 64.5499 17.126 64.2045 16.958C63.8685 16.7807 63.5512 16.5987 63.2525 16.412C62.5432 16.7947 61.7592 17.126 60.9005 17.406C60.0512 17.686 59.1599 17.91 58.2265 18.078L57.8345 17.378C58.7025 17.238 59.5145 17.0607 60.2705 16.846C61.0265 16.622 61.7125 16.37 62.3285 16.09C62.9445 15.81 63.4812 15.5113 63.9385 15.194C64.4052 14.8673 64.7832 14.5313 65.0725 14.186C64.5779 14.2047 64.0879 14.214 63.6025 14.214C63.1265 14.214 62.6365 14.214 62.1325 14.214H58.7585V13.472ZM70.877 23.104L70.275 22.516C71.059 22.0587 71.731 21.5453 72.291 20.976C72.851 20.4067 73.3083 19.8 73.663 19.156C74.027 18.5027 74.3023 17.8213 74.489 17.112C74.6756 16.4027 74.7923 15.6793 74.839 14.942C74.391 14.9607 73.943 14.9747 73.495 14.984C73.0563 14.984 72.5943 14.984 72.109 14.984H70.765V14.284H72.767C73.243 14.284 73.7236 14.284 74.209 14.284C74.6943 14.2747 75.189 14.2607 75.693 14.242C75.6183 16.2113 75.189 17.9333 74.405 19.408C73.6303 20.8733 72.4543 22.1053 70.877 23.104ZM80.789 13.108V25.834H80.019V18.946H77.835V25.512H77.079V13.248H77.835V18.218H80.019V13.108H80.789ZM82.7294 22.46C83.2987 22.0773 83.8307 21.6247 84.3254 21.102C84.8201 20.5793 85.2401 19.9727 85.5854 19.282C85.9401 18.582 86.2061 17.7887 86.3834 16.902C86.5607 16.0153 86.6214 15.012 86.5654 13.892H87.4054C87.4241 14.48 87.4101 15.04 87.3634 15.572C87.3261 16.104 87.2561 16.6173 87.1534 17.112C87.4894 18.1013 87.9934 19.0347 88.6654 19.912C89.3374 20.7893 90.1261 21.522 91.0314 22.11L90.4154 22.712C89.6687 22.18 88.9874 21.5407 88.3714 20.794C87.7647 20.038 87.2607 19.1747 86.8594 18.204C86.5327 19.2307 86.0707 20.1407 85.4734 20.934C84.8854 21.7273 84.1807 22.418 83.3594 23.006L82.7294 22.46ZM95.3574 17.98V18.722H93.0614V25.834H92.2774V13.108H93.0614V17.98H95.3574ZM106.482 18.638H98.4178V13.57H106.482V18.638ZM105.67 17.938V14.27H99.2298V17.938H105.67ZM96.4158 21.228V20.528H108.232V21.228H102.814V25.764H102.002V21.228H96.4158ZM110.48 19.758C111.302 19.5247 112.016 19.2027 112.622 18.792C113.238 18.3813 113.747 17.9147 114.148 17.392C114.55 16.86 114.839 16.286 115.016 15.67C115.203 15.0447 115.278 14.4007 115.24 13.738H116.122C116.132 14.0647 116.118 14.382 116.08 14.69C116.043 14.9887 115.987 15.2827 115.912 15.572C116.118 16.0947 116.393 16.5753 116.738 17.014C117.084 17.4433 117.466 17.8307 117.886 18.176C118.316 18.5213 118.764 18.82 119.23 19.072C119.706 19.3147 120.182 19.506 120.658 19.646L120.21 20.346C119.744 20.1967 119.286 20.0007 118.838 19.758C118.39 19.506 117.961 19.2167 117.55 18.89C117.149 18.5633 116.776 18.204 116.43 17.812C116.094 17.42 115.805 17.0047 115.562 16.566C115.152 17.462 114.554 18.2367 113.77 18.89C112.986 19.5433 112.058 20.0613 110.984 20.444L110.48 19.758ZM115.128 20.01H115.968V23.23H121.414V23.93H109.598V23.23H115.128V20.01Z" fill="black"/>
</svg>
