<svg width="40" height="40" viewBox="0 0 40 40" fill="none" xmlns="http://www.w3.org/2000/svg">
<path d="M36.6687 12.9633V36.0156H3.33124V12.9633L20 3.15079L36.6687 12.9633Z" fill="#E6F3FF"/>
<path d="M36.6687 12.9633V36.0156H20V3.15079L36.6687 12.9633Z" fill="#BBE4F2"/>
<path d="M7.34375 17.7684H17.1429V36.0156H7.34375V17.7684Z" fill="#FFCF67"/>
<path d="M22.8571 17.7684H32.3698V24.375H22.8571V17.7684Z" fill="#28ABF9"/>
<path d="M0 34.2859H40V40H0V34.2859Z" fill="#13CFFE"/>
<path d="M20 34.2859H40V40H20V34.2859Z" fill="#28ABF9"/>
<path d="M5.71429 0H11.4286V8.44047H5.71429V0Z" fill="#13CFFE"/>
<path d="M40 11.5469V17.2742L20 5.72734L0 17.2742V11.5469L20 0L40 11.5469Z" fill="#393E9F"/>
<path d="M40 11.5469V17.2742L20 5.72734V0L40 11.5469Z" fill="#340D66"/>
</svg>
